<mxfile host="app.diagrams.net" modified="2023-09-18T03:31:43.711Z" agent="Mozilla/5.0 (Macintosh; Intel Mac OS X 10_15_7) AppleWebKit/537.36 (KHTML, like Gecko) Chrome/116.0.0.0 Safari/537.36" version="21.7.2" etag="26uR_AAp-7WMOUpHEslu" type="github">
  <diagram name="第 1 页" id="lox__5PYvkkweR0wDk9Q">
    <mxGraphModel>
      <root>
        <mxCell id="0" />
        <mxCell id="1" parent="0" />
      </root>
    </mxGraphModel>
  </diagram>
</mxfile>
